HIERARCHY
ROOT Hips
{
	OFFSET -3.958830 18.904000 13.208200
	CHANNELS 6 Xposition Yposition Zposition Zrotation Yrotation Xrotation 
	JOINT LHipJoint
	{
		OFFSET 0.000000 0.000000 0.000000
		CHANNELS 3 Zrotation Yrotation Xrotation
		JOINT LeftUpLeg
		{
			OFFSET 1.800000 -1.400000 0.085000
			CHANNELS 3 Zrotation Yrotation Xrotation
			JOINT LeftLeg
			{
				OFFSET 2.215000 -6.000000 0.000000
				CHANNELS 3 Zrotation Yrotation Xrotation
				JOINT LeftFoot
				{
					OFFSET 2.500000 -6.900000 0.000000
					CHANNELS 3 Zrotation Yrotation Xrotation
					JOINT LeftToeBase
					{
						OFFSET 0.200000 -0.500000 1.950000
						CHANNELS 3 Zrotation Yrotation Xrotation
						End Site
						{
							OFFSET 0.000000 0.000000 0.000000
						}
					}
				}
			}
		}
	}
	JOINT RHipJoint
	{
		OFFSET 0.000000 0.000000 0.000000
		CHANNELS 3 Zrotation Yrotation Xrotation
		JOINT RightUpLeg
		{
			OFFSET -1.800000 -1.400000 0.085000
			CHANNELS 3 Zrotation Yrotation Xrotation
			JOINT RightLeg
			{
				OFFSET -2.215000 -6.000000 0.000000
				CHANNELS 3 Zrotation Yrotation Xrotation
				JOINT RightFoot
				{
					OFFSET -2.500000 -6.900000 0.000000
					CHANNELS 3 Zrotation Yrotation Xrotation
					JOINT RightToeBase
					{
						OFFSET -0.200000 -0.500000 1.950000
						CHANNELS 3 Zrotation Yrotation Xrotation
						End Site
						{
							OFFSET 0.000000 0.000000 0.000000
						}
					}
				}
			}
		}
	}
	JOINT LowerBack
	{
		OFFSET 0.000000 0.000000 0.000000
		CHANNELS 3 Zrotation Yrotation Xrotation
		JOINT Spine
		{
			OFFSET -0.087000 1.940000 -0.288900
			CHANNELS 3 Zrotation Yrotation Xrotation
			JOINT Spine1
			{
				OFFSET 0.000000 1.950000 0.060000
				CHANNELS 3 Zrotation Yrotation Xrotation
				JOINT Neck
				{
					OFFSET 0.000000 0.000000 0.000000
					CHANNELS 3 Zrotation Yrotation Xrotation
					JOINT Neck1
					{
						OFFSET 0.000000 1.600000 0.340000
						CHANNELS 3 Zrotation Yrotation Xrotation
						JOINT Head
						{
							OFFSET 0.000000 1.667000 -0.240000
							CHANNELS 3 Zrotation Yrotation Xrotation
							End Site
							{
								OFFSET 0.000000 0.000000 0.000000
							}
						}
					}
				}
				JOINT LeftShoulder
				{
					OFFSET 0.000000 0.000000 0.000000
					CHANNELS 3 Zrotation Yrotation Xrotation
					JOINT LeftArm
					{
						OFFSET 2.700000 1.550000 -0.730000
						CHANNELS 3 Zrotation Yrotation Xrotation
						JOINT LeftForeArm
						{
							OFFSET 5.450000 0.000000 0.000000
							CHANNELS 3 Zrotation Yrotation Xrotation
							JOINT LeftHand
							{
								OFFSET 3.450000 0.000000 0.000000
								CHANNELS 3 Zrotation Yrotation Xrotation
								JOINT LeftHandIndex1
								{
									OFFSET 0.750000 0.000000 0.000000
									CHANNELS 3 Zrotation Yrotation Xrotation
									End Site
									{
										OFFSET 0.000000 0.000000 0.000000
									}
								}
							}
						}
					}
				}
				JOINT RightShoulder
				{
					OFFSET 0.000000 0.000000 0.000000
					CHANNELS 3 Zrotation Yrotation Xrotation
					JOINT RightArm
					{
						OFFSET -2.700000 1.550000 -0.730000
						CHANNELS 3 Zrotation Yrotation Xrotation
						JOINT RightForeArm
						{
							OFFSET -5.450000 0.000000 0.000000
							CHANNELS 3 Zrotation Yrotation Xrotation
							JOINT RightHand
							{
								OFFSET -3.450000 0.000000 0.000000
								CHANNELS 3 Zrotation Yrotation Xrotation
								JOINT RightHandIndex1
								{
									OFFSET -0.750000 0.000000 0.000000
									CHANNELS 3 Zrotation Yrotation Xrotation
									End Site
									{
										OFFSET 0.000000 0.000000 0.000000
									}
								}
							}
						}
					}
				}
			}
		}
	}
}
MOTION
Frames: 10
Frame Time: 0.016667
0.521450 13.822940 -4.600740 -41.914468 -2.869949 20.119804 -16.210501 11.013996 7.500772 -15.337878 -21.202555 -53.297294 -0.848583 5.196318 33.132295 -0.048509 4.139228 2.903583 0.306490 0.308930 0.279190 17.758500 -9.325271 1.400513 -5.234310 -2.151076 6.433013 -7.662950 -3.276466 18.261448 -0.516301 -4.363405 2.886233 0.197810 -0.002940 0.047490 -1.432889 -3.895295 -8.702180 -13.965550 12.783205 31.754717 8.926558 9.418309 14.199424 -1.130514 2.255809 -12.598583 0.396095 5.858408 55.413219 5.068440 8.240010 -1.438730 -19.247674 -22.221744 4.463714 -8.788367 -19.975176 -1.246167 9.689478 -2.890516 -0.988237 -3.998095 2.774653 0.210440 0.014670 0.133340 0.071630 21.466087 25.713961 10.398402 18.662409 14.034574 -1.617609 -0.598471 13.899035 -0.363293 2.510812 -1.198462 -0.046550 0.113210 -0.109660 -0.104560 
0.551480 13.838820 -4.507190 -42.338513 -2.821591 19.092092 -16.173525 11.093524 7.365054 -14.728477 -20.761763 -52.259066 -2.006271 5.904711 35.138018 0.011428 4.632253 2.714549 0.331780 0.338730 0.301900 17.774246 -9.397623 1.441540 -4.549050 -2.218035 6.630419 -8.617312 -3.078313 19.365573 -0.568854 -4.422051 2.851903 0.212970 -0.019890 0.053360 -1.500713 -3.805215 -8.644261 -13.849433 13.108953 32.297078 8.259824 9.968599 14.879153 -1.044472 2.727583 -12.750592 1.389744 5.820493 55.977015 6.093770 8.597090 -2.918500 -18.242739 -22.283440 4.278795 -9.197263 -20.652915 -1.254578 10.174617 -2.652395 -1.089796 -4.000845 2.747434 0.252840 -0.007050 0.166490 0.067000 20.076118 25.407913 10.761983 19.523226 12.756339 -1.553838 0.354000 14.365645 -0.228889 2.477682 -1.173479 -0.047580 0.129320 -0.108770 -0.116090 
0.580630 13.873190 -4.412700 -43.006685 -2.879979 17.920091 -16.134772 11.285873 7.162645 -14.139996 -19.743340 -50.956397 -2.460644 6.275039 35.779111 0.014546 4.856257 2.627776 0.321840 0.322360 0.297750 17.774022 -9.490582 1.499609 -3.333880 -2.226237 6.254824 -10.245612 -2.589685 21.374104 -0.592887 -4.501232 2.816391 0.210570 -0.010170 0.049610 -1.545613 -3.821033 -8.556931 -14.054671 13.462620 32.822182 8.011473 10.401730 15.252767 -1.203551 2.715223 -12.902874 1.299771 6.328570 56.876959 7.142990 8.945040 -3.005760 -18.090680 -22.268796 4.189570 -9.134779 -20.628970 -1.410658 10.588185 -2.396097 -1.171088 -4.018116 2.720731 0.279090 -0.009680 0.163990 0.051840 20.131452 25.341733 11.092848 19.976279 11.555874 -1.980557 -0.210987 14.878512 -0.313410 2.446274 -1.166743 -0.066090 0.143700 -0.086140 -0.128030 
0.616900 13.926880 -4.323820 -43.141981 -2.259053 16.749059 -16.088106 11.528703 6.924620 -13.748292 -18.619549 -48.810849 -3.891612 6.587752 34.291963 -0.005828 4.712868 2.667608 0.318450 0.319640 0.309070 17.768685 -9.604532 1.564656 -1.974391 -2.166889 5.224437 -11.799584 -2.027217 23.942491 -0.628416 -4.587198 2.775609 0.197290 -0.034210 0.051190 -1.594773 -3.866717 -8.479884 -14.375680 13.702554 33.972292 7.603954 10.540647 15.197322 -1.157642 2.970878 -13.359622 1.702524 6.269511 57.961623 7.286180 9.408860 -3.144900 -18.450407 -22.887240 4.275650 -7.638191 -20.046194 -1.802989 10.043559 -2.415124 -1.132831 -4.012605 2.693068 0.300350 -0.026160 0.186330 0.038160 20.377160 25.613227 11.649961 20.766543 10.061863 -2.492999 -1.552363 15.235631 -0.488523 2.434907 -1.175009 -0.060050 0.133710 -0.085250 -0.136750 
0.640000 13.978250 -4.233320 -44.598009 -2.056594 15.424101 -16.018897 11.815135 6.548542 -12.273310 -16.634682 -47.169520 -5.184591 6.838705 32.486184 -0.064862 4.560306 2.714441 0.326030 0.322320 0.333080 17.774452 -9.706340 1.768617 0.939511 -2.105165 3.836608 -14.351967 -0.957077 26.902628 -0.692368 -4.749174 2.710823 0.200920 -0.052500 0.048390 -1.682650 -3.853923 -8.389404 -13.528086 13.631121 35.015657 7.060187 10.931037 14.886393 -0.974323 2.906566 -13.248667 1.496102 6.336927 58.052588 6.618820 9.811410 -3.887690 -19.165634 -22.611791 3.985729 -7.152172 -19.741487 -2.121087 10.223882 -2.638864 -1.178956 -4.008054 2.669757 0.320690 -0.034970 0.199240 0.029260 20.673323 25.402999 11.770568 21.075960 9.185976 -2.805628 -2.289464 15.268628 -0.595648 2.424090 -1.174345 -0.067230 0.139970 -0.087450 -0.153180 
0.671840 14.007630 -4.136780 -44.878494 -0.764747 14.314813 -15.962278 11.967942 6.373768 -12.259021 -15.803087 -45.260385 -5.834205 6.549742 29.997209 -0.144207 4.176427 2.843482 0.327260 0.310650 0.344830 17.795324 -9.798426 1.842237 2.979006 -1.438659 0.792435 -15.926843 0.023140 32.706899 -0.776438 -5.159926 2.546606 0.195850 -0.076930 0.052640 -1.792020 -3.800580 -8.371150 -12.852079 13.001276 36.226243 6.136429 10.474596 14.426294 -0.789030 2.722495 -13.491817 1.016606 6.604904 58.112698 6.395770 10.013200 -4.062300 -19.238619 -22.657569 4.019872 -7.105244 -19.088608 -2.365133 10.447464 -3.004091 -1.233094 -3.994285 2.675697 0.341140 -0.049140 0.207040 0.014890 20.361598 25.286637 11.962082 21.758727 8.269161 -2.654181 -2.175681 14.382698 -0.527582 2.438025 -1.166546 -0.068980 0.121180 -0.083740 -0.169290 
0.687670 13.999500 -4.021760 -44.673175 0.781463 13.038166 -15.923068 11.983992 6.326854 -12.818360 -15.859195 -43.406574 -6.350555 6.804178 30.961206 -0.064276 4.391564 2.776149 0.323680 0.308040 0.334980 17.827482 -9.836688 1.868468 4.141920 -0.260267 -2.964626 -16.422118 0.650928 40.435335 -0.920385 -5.917080 2.287339 0.182460 -0.086480 0.050770 -1.906109 -3.682083 -8.430294 -12.192071 12.087534 37.097604 5.068654 9.634282 13.376848 -0.640077 2.458050 -13.684854 0.187074 6.720357 58.102348 6.113740 9.808450 -3.421510 -19.757504 -22.560530 3.965796 -6.630270 -18.566086 -2.249298 9.201621 -1.686291 -1.051825 -4.007395 2.669263 0.329770 -0.054700 0.206640 0.021250 20.667556 24.839260 12.149557 22.907742 6.524540 -2.637122 -2.086089 13.598214 -0.488174 2.461582 -1.177046 -0.054570 0.102880 -0.093110 -0.160870 
0.712420 13.993730 -3.923640 -45.828787 2.459380 11.478953 -15.885639 12.084724 6.088853 -11.845344 -14.977717 -42.027030 -7.432328 7.077738 30.581455 -0.026019 4.481024 2.755665 0.301930 0.285800 0.312720 17.850559 -9.731673 2.115543 6.446404 1.306227 -7.161878 -16.547359 1.116688 48.453770 -1.118955 -6.882289 1.967094 0.164590 -0.072030 0.052740 -2.001005 -3.756170 -8.519339 -10.076681 10.746490 38.412404 4.565704 8.838708 12.691562 -0.387497 1.964560 -13.756627 -1.049886 7.176690 57.744122 5.570030 9.753300 -2.475960 -20.458057 -22.243232 3.890615 -7.363749 -18.132436 -2.066928 8.566346 -1.061023 -0.966143 -4.024261 2.676798 0.305030 -0.041760 0.190980 0.024470 20.919633 24.422365 12.265302 22.695149 4.984780 -2.552573 -1.898707 12.348302 -0.420105 2.491993 -1.177144 -0.048670 0.093170 -0.087790 -0.148390 
0.755830 13.988530 -3.842040 -47.052812 4.180956 10.322118 -15.843091 12.095209 5.885081 -11.369233 -14.304330 -41.114582 -6.269591 6.841709 31.347047 -0.006646 4.534891 2.751379 0.290000 0.274960 0.286370 17.898426 -9.559502 2.413561 7.908996 3.318579 -12.263514 -15.416329 0.678849 56.228044 -1.318250 -7.880362 1.645667 0.161180 -0.046110 0.046760 -2.143847 -3.778070 -8.654546 -7.809990 9.113986 39.931072 3.701728 7.812415 11.374910 -0.117403 1.688386 -13.447676 -1.528492 7.911184 56.337229 6.282290 9.811860 -1.854310 -21.711484 -21.634268 3.607693 -7.797218 -17.441070 -2.260755 9.096708 -0.999781 -0.986628 -4.028813 2.705841 0.283680 -0.030080 0.167710 0.037550 21.672230 23.351223 12.031234 21.833808 3.477528 -2.484274 -1.572514 11.318594 -0.361227 2.516049 -1.181527 -0.053100 0.092670 -0.087610 -0.135550 
0.812560 13.988240 -3.787480 -47.439634 5.602588 8.764330 -15.815922 12.007623 5.782381 -11.268760 -14.337862 -40.284146 -6.028274 7.053560 33.072672 0.050866 4.870360 2.659820 0.266140 0.245120 0.282300 17.951609 -9.353414 2.644109 7.678395 5.260636 -17.336055 -13.831696 -0.514618 62.689910 -1.488457 -8.761494 1.371553 0.150570 -0.022520 0.034670 -2.267516 -3.776642 -8.797799 -6.506334 7.722821 41.948113 2.556525 6.585980 10.515264 0.298442 1.867881 -13.195644 -0.969346 7.938320 55.358453 5.758210 10.193400 -1.854070 -22.442745 -21.333012 3.487198 -7.018021 -16.555685 -2.338776 8.275791 -0.956691 -0.929532 -4.046452 2.660997 0.281150 -0.015550 0.152910 0.038100 21.544126 22.358234 11.707440 21.285481 2.819050 -2.329543 -1.601902 10.361843 -0.319072 2.535042 -1.151954 -0.076240 0.117500 -0.080730 -0.139260 
